<svg xmlns="http://www.w3.org/2000/svg" xml:space="preserve" width="16" height="16" data-version="2">
    <path fill="#00923d" d="m11.71 11.97-1.63.24q-.17-.54-.35-1.09-.17-.54-.33-1.09l-2.64.1-.33 1.43H4.77q.15-1.83.31-3.63.16-1.81.31-3.62.78-.13 1.55-.22.76-.08 1.55-.08.95 0 1.91.03l.34 2.23q.16 1.11.35 2.23.13.88.28 1.74.16.86.34 1.73m-2.69-3.4q-.01-.09-.05-.36-.04-.26-.1-.56-.05-.29-.12-.53-.07-.24-.13-.29-.02-.01-.11-.02l-.17-.02q-.09-.01-.17-.01h-.46q-.1.01-.19.03-.1.02-.13.06-.02.01-.05.13-.03.13-.08.32t-.1.4q-.05.22-.09.41-.04.2-.07.34-.03.14-.04.16Z" paint-order="stroke"/>
    <rect width="6.94" height="8.2" x="-3.47" y="-4.1" fill="none" rx="0" ry="0" transform="translate(8.74 8.61)"/>
</svg>
